<mxfile host="app.diagrams.net" modified="2022-08-09T06:16:15.670Z" agent="5.0 (Macintosh; Intel Mac OS X 10_15_7) AppleWebKit/537.36 (KHTML, like Gecko) Chrome/104.0.0.0 Safari/537.36" etag="otbCcuoQt4ZeNPxdfjEp" version="20.2.3" type="github">
  <diagram id="z_kptfTWo_rXRnX8HvSr" name="Page-1">
    <mxGraphModel dx="1577" dy="1023" grid="0" gridSize="10" guides="1" tooltips="1" connect="1" arrows="1" fold="1" page="1" pageScale="1" pageWidth="3300" pageHeight="4681" math="0" shadow="0">
      <root>
        <mxCell id="0" />
        <mxCell id="1" parent="0" />
        <mxCell id="BfwxDj2PSmST9aKWuw-U-1" value="" style="whiteSpace=wrap;html=1;fillColor=#fff2cc;strokeColor=#d6b656;" parent="1" vertex="1">
          <mxGeometry x="797" y="21" width="486" height="240" as="geometry" />
        </mxCell>
        <mxCell id="GDYOSG9VOTngp5VWFNq1-11" value="" style="whiteSpace=wrap;html=1;aspect=fixed;fillColor=#f5f5f5;fontColor=#333333;strokeColor=#666666;" parent="1" vertex="1">
          <mxGeometry x="270" y="150" width="170" height="170" as="geometry" />
        </mxCell>
        <mxCell id="GDYOSG9VOTngp5VWFNq1-1" value="" style="whiteSpace=wrap;html=1;aspect=fixed;fillColor=#f5f5f5;fontColor=#333333;strokeColor=#666666;" parent="1" vertex="1">
          <mxGeometry x="60" y="150" width="170" height="170" as="geometry" />
        </mxCell>
        <mxCell id="GDYOSG9VOTngp5VWFNq1-4" value="&lt;font style=&quot;font-size: 18px;&quot;&gt;营销工具&lt;/font&gt;" style="text;html=1;strokeColor=none;fillColor=none;align=center;verticalAlign=middle;whiteSpace=wrap;rounded=0;" parent="1" vertex="1">
          <mxGeometry x="102.5" y="160" width="85" height="20" as="geometry" />
        </mxCell>
        <mxCell id="GDYOSG9VOTngp5VWFNq1-5" value="&lt;font style=&quot;font-size: 18px;&quot;&gt;招选搭投&lt;/font&gt;" style="text;html=1;strokeColor=none;fillColor=none;align=center;verticalAlign=middle;whiteSpace=wrap;rounded=0;" parent="1" vertex="1">
          <mxGeometry x="305" y="155" width="100" height="30" as="geometry" />
        </mxCell>
        <mxCell id="GDYOSG9VOTngp5VWFNq1-6" value="活动管理" style="text;html=1;strokeColor=none;fillColor=none;align=center;verticalAlign=middle;whiteSpace=wrap;rounded=0;" parent="1" vertex="1">
          <mxGeometry x="380" y="80" width="60" height="30" as="geometry" />
        </mxCell>
        <mxCell id="GDYOSG9VOTngp5VWFNq1-8" value="&lt;font style=&quot;font-size: 6px;&quot;&gt;营销业务平台&lt;/font&gt;" style="rounded=0;whiteSpace=wrap;html=1;" parent="1" vertex="1">
          <mxGeometry x="80" y="190" width="120" height="30" as="geometry" />
        </mxCell>
        <mxCell id="GDYOSG9VOTngp5VWFNq1-9" value="价格中心" style="whiteSpace=wrap;html=1;aspect=fixed;" parent="1" vertex="1">
          <mxGeometry x="80" y="240" width="50" height="50" as="geometry" />
        </mxCell>
        <mxCell id="GDYOSG9VOTngp5VWFNq1-10" value="营销中台" style="whiteSpace=wrap;html=1;aspect=fixed;" parent="1" vertex="1">
          <mxGeometry x="150" y="240" width="50" height="50" as="geometry" />
        </mxCell>
        <mxCell id="GDYOSG9VOTngp5VWFNq1-12" value="招商" style="whiteSpace=wrap;html=1;aspect=fixed;" parent="1" vertex="1">
          <mxGeometry x="300" y="190" width="50" height="50" as="geometry" />
        </mxCell>
        <mxCell id="GDYOSG9VOTngp5VWFNq1-13" value="选品" style="whiteSpace=wrap;html=1;aspect=fixed;" parent="1" vertex="1">
          <mxGeometry x="364" y="190" width="50" height="50" as="geometry" />
        </mxCell>
        <mxCell id="GDYOSG9VOTngp5VWFNq1-14" value="搭建" style="whiteSpace=wrap;html=1;aspect=fixed;" parent="1" vertex="1">
          <mxGeometry x="300" y="250" width="50" height="50" as="geometry" />
        </mxCell>
        <mxCell id="GDYOSG9VOTngp5VWFNq1-15" value="投放" style="whiteSpace=wrap;html=1;aspect=fixed;" parent="1" vertex="1">
          <mxGeometry x="364" y="250" width="50" height="50" as="geometry" />
        </mxCell>
        <mxCell id="GDYOSG9VOTngp5VWFNq1-16" value="" style="whiteSpace=wrap;html=1;aspect=fixed;fillColor=#fff2cc;strokeColor=#d6b656;" parent="1" vertex="1">
          <mxGeometry x="480" y="150" width="170" height="170" as="geometry" />
        </mxCell>
        <mxCell id="GDYOSG9VOTngp5VWFNq1-17" value="&lt;font style=&quot;font-size: 18px;&quot;&gt;活动管理&lt;/font&gt;" style="text;html=1;strokeColor=none;fillColor=none;align=center;verticalAlign=middle;whiteSpace=wrap;rounded=0;" parent="1" vertex="1">
          <mxGeometry x="520" y="153" width="100" height="30" as="geometry" />
        </mxCell>
        <mxCell id="GDYOSG9VOTngp5VWFNq1-18" value="项目&lt;br&gt;管理&lt;br&gt;" style="whiteSpace=wrap;html=1;" parent="1" vertex="1">
          <mxGeometry x="500" y="190" width="50" height="110" as="geometry" />
        </mxCell>
        <mxCell id="GDYOSG9VOTngp5VWFNq1-19" value="资源&lt;br&gt;管理" style="whiteSpace=wrap;html=1;" parent="1" vertex="1">
          <mxGeometry x="580" y="190" width="50" height="110" as="geometry" />
        </mxCell>
        <mxCell id="GDYOSG9VOTngp5VWFNq1-20" value="营销工作台&amp;nbsp;&lt;span style=&quot;color: rgba(0, 0, 0, 0); font-family: monospace; font-size: 0px; text-align: start;&quot;&gt;%3CmxGraphModel%3E%3Croot%3E%3CmxCell%20id%3D%220%22%2F%3E%3CmxCell%20id%3D%221%22%20parent%3D%220%22%2F%3E%3CmxCell%20id%3D%222%22%20value%3D%22%22%20style%3D%22whiteSpace%3Dwrap%3Bhtml%3D1%3Baspect%3Dfixed%3BfillColor%3D%23f5f5f5%3BfontColor%3D%23333333%3BstrokeColor%3D%23666666%3B%22%20vertex%3D%221%22%20parent%3D%221%22%3E%3CmxGeometry%20x%3D%2260%22%20y%3D%22150%22%20width%3D%22170%22%20height%3D%22170%22%20as%3D%22geometry%22%2F%3E%3C%2FmxCell%3E%3C%2Froot%3E%3C%2FmxGraphModel%3E&lt;/span&gt;" style="whiteSpace=wrap;html=1;fillColor=#f5f5f5;fontColor=#333333;strokeColor=#666666;" parent="1" vertex="1">
          <mxGeometry x="230" y="430" width="127" height="65" as="geometry" />
        </mxCell>
        <mxCell id="GDYOSG9VOTngp5VWFNq1-21" value="任务执行中心" style="whiteSpace=wrap;html=1;fillColor=#f5f5f5;fontColor=#333333;strokeColor=#666666;" parent="1" vertex="1">
          <mxGeometry x="228" y="534" width="127" height="65" as="geometry" />
        </mxCell>
        <mxCell id="GDYOSG9VOTngp5VWFNq1-22" value="活动管理中心" style="whiteSpace=wrap;html=1;fillColor=#f5f5f5;fontColor=#333333;strokeColor=#666666;" parent="1" vertex="1">
          <mxGeometry x="398" y="534" width="127" height="65" as="geometry" />
        </mxCell>
        <mxCell id="GDYOSG9VOTngp5VWFNq1-23" value="策略中心" style="whiteSpace=wrap;html=1;fillColor=#f5f5f5;fontColor=#333333;strokeColor=#666666;" parent="1" vertex="1">
          <mxGeometry x="256" y="878" width="117" height="65" as="geometry" />
        </mxCell>
        <mxCell id="GDYOSG9VOTngp5VWFNq1-24" value="治理中心" style="whiteSpace=wrap;html=1;fillColor=#f5f5f5;fontColor=#333333;strokeColor=#666666;" parent="1" vertex="1">
          <mxGeometry x="60.5" y="520" width="127" height="65" as="geometry" />
        </mxCell>
        <mxCell id="GDYOSG9VOTngp5VWFNq1-27" value="" style="shape=flexArrow;endArrow=classic;html=1;rounded=0;fontSize=8;exitX=0.192;exitY=0.985;exitDx=0;exitDy=0;exitPerimeter=0;" parent="1" source="GDYOSG9VOTngp5VWFNq1-34" edge="1">
          <mxGeometry width="50" height="50" relative="1" as="geometry">
            <mxPoint x="304.99999999999994" y="812" as="sourcePoint" />
            <mxPoint x="304.99999999999994" y="878" as="targetPoint" />
          </mxGeometry>
        </mxCell>
        <mxCell id="GDYOSG9VOTngp5VWFNq1-28" value="治理中心" style="whiteSpace=wrap;html=1;fillColor=#f5f5f5;fontColor=#333333;strokeColor=#666666;" parent="1" vertex="1">
          <mxGeometry x="414" y="430" width="127" height="65" as="geometry" />
        </mxCell>
        <mxCell id="GDYOSG9VOTngp5VWFNq1-29" value="给予经验" style="text;html=1;align=center;verticalAlign=middle;resizable=0;points=[];autosize=1;strokeColor=none;fillColor=none;fontSize=8;" parent="1" vertex="1">
          <mxGeometry x="319" y="824" width="66" height="26" as="geometry" />
        </mxCell>
        <mxCell id="GDYOSG9VOTngp5VWFNq1-30" value="活动管理中心" style="whiteSpace=wrap;html=1;fillColor=#ffe6cc;strokeColor=#d79b00;" parent="1" vertex="1">
          <mxGeometry x="465" y="877" width="120" height="66" as="geometry" />
        </mxCell>
        <mxCell id="GDYOSG9VOTngp5VWFNq1-31" value="" style="shape=flexArrow;endArrow=classic;html=1;rounded=0;fontSize=8;entryX=0;entryY=0.5;entryDx=0;entryDy=0;exitX=1;exitY=0.5;exitDx=0;exitDy=0;" parent="1" source="GDYOSG9VOTngp5VWFNq1-23" target="GDYOSG9VOTngp5VWFNq1-30" edge="1">
          <mxGeometry width="50" height="50" relative="1" as="geometry">
            <mxPoint x="333.5" y="912" as="sourcePoint" />
            <mxPoint x="410.5" y="912" as="targetPoint" />
          </mxGeometry>
        </mxCell>
        <mxCell id="GDYOSG9VOTngp5VWFNq1-32" value="给予指导" style="text;html=1;align=center;verticalAlign=middle;resizable=0;points=[];autosize=1;strokeColor=none;fillColor=none;fontSize=8;" parent="1" vertex="1">
          <mxGeometry x="373" y="879" width="66" height="26" as="geometry" />
        </mxCell>
        <mxCell id="GDYOSG9VOTngp5VWFNq1-34" value="数据中心" style="whiteSpace=wrap;html=1;fillColor=#f5f5f5;fontColor=#333333;strokeColor=#666666;" parent="1" vertex="1">
          <mxGeometry x="198" y="754" width="563" height="54" as="geometry" />
        </mxCell>
        <mxCell id="GDYOSG9VOTngp5VWFNq1-35" value="任务执行中心" style="whiteSpace=wrap;html=1;fillColor=#ffe6cc;strokeColor=#d79b00;" parent="1" vertex="1">
          <mxGeometry x="198" y="1009" width="387" height="65" as="geometry" />
        </mxCell>
        <mxCell id="GDYOSG9VOTngp5VWFNq1-36" value="" style="shape=flexArrow;endArrow=classic;html=1;rounded=0;fontSize=8;" parent="1" edge="1">
          <mxGeometry width="50" height="50" relative="1" as="geometry">
            <mxPoint x="486" y="943" as="sourcePoint" />
            <mxPoint x="486" y="1009" as="targetPoint" />
          </mxGeometry>
        </mxCell>
        <mxCell id="GDYOSG9VOTngp5VWFNq1-37" value="任务编排&lt;br&gt;下发任务" style="text;html=1;align=center;verticalAlign=middle;resizable=0;points=[];autosize=1;strokeColor=none;fillColor=none;fontSize=8;" parent="1" vertex="1">
          <mxGeometry x="414" y="950" width="66" height="41" as="geometry" />
        </mxCell>
        <mxCell id="GDYOSG9VOTngp5VWFNq1-40" value="" style="shape=flexArrow;endArrow=classic;html=1;rounded=0;fontSize=8;" parent="1" edge="1">
          <mxGeometry width="50" height="50" relative="1" as="geometry">
            <mxPoint x="536" y="1009" as="sourcePoint" />
            <mxPoint x="537" y="942" as="targetPoint" />
          </mxGeometry>
        </mxCell>
        <mxCell id="GDYOSG9VOTngp5VWFNq1-41" value="反馈状态" style="text;html=1;align=center;verticalAlign=middle;resizable=0;points=[];autosize=1;strokeColor=none;fillColor=none;fontSize=8;" parent="1" vertex="1">
          <mxGeometry x="543" y="963" width="66" height="26" as="geometry" />
        </mxCell>
        <mxCell id="GDYOSG9VOTngp5VWFNq1-46" value="治理中心" style="whiteSpace=wrap;html=1;fillColor=#f5f5f5;fontColor=#333333;strokeColor=#666666;" parent="1" vertex="1">
          <mxGeometry x="690" y="879" width="71" height="195" as="geometry" />
        </mxCell>
        <mxCell id="GDYOSG9VOTngp5VWFNq1-47" value="" style="shape=flexArrow;endArrow=classic;html=1;rounded=0;fontSize=8;exitX=0.028;exitY=0.154;exitDx=0;exitDy=0;exitPerimeter=0;entryX=1;entryY=0.5;entryDx=0;entryDy=0;" parent="1" source="GDYOSG9VOTngp5VWFNq1-46" target="GDYOSG9VOTngp5VWFNq1-30" edge="1">
          <mxGeometry width="50" height="50" relative="1" as="geometry">
            <mxPoint x="659" y="909.0699999999999" as="sourcePoint" />
            <mxPoint x="588" y="909" as="targetPoint" />
          </mxGeometry>
        </mxCell>
        <mxCell id="GDYOSG9VOTngp5VWFNq1-48" value="立项审核" style="text;html=1;align=center;verticalAlign=middle;resizable=0;points=[];autosize=1;strokeColor=none;fillColor=none;fontSize=8;" parent="1" vertex="1">
          <mxGeometry x="602" y="877" width="66" height="26" as="geometry" />
        </mxCell>
        <mxCell id="GDYOSG9VOTngp5VWFNq1-49" value="" style="shape=flexArrow;endArrow=classic;html=1;rounded=0;fontSize=8;exitX=0.01;exitY=0.836;exitDx=0;exitDy=0;exitPerimeter=0;" parent="1" source="GDYOSG9VOTngp5VWFNq1-46" edge="1">
          <mxGeometry width="50" height="50" relative="1" as="geometry">
            <mxPoint x="685.498" y="1040" as="sourcePoint" />
            <mxPoint x="584.51" y="1043" as="targetPoint" />
          </mxGeometry>
        </mxCell>
        <mxCell id="GDYOSG9VOTngp5VWFNq1-50" value="监控报警" style="text;html=1;align=center;verticalAlign=middle;resizable=0;points=[];autosize=1;strokeColor=none;fillColor=none;fontSize=8;" parent="1" vertex="1">
          <mxGeometry x="609" y="1009" width="66" height="26" as="geometry" />
        </mxCell>
        <mxCell id="GDYOSG9VOTngp5VWFNq1-51" value="" style="shape=flexArrow;endArrow=classic;html=1;rounded=0;fontSize=8;" parent="1" edge="1">
          <mxGeometry width="50" height="50" relative="1" as="geometry">
            <mxPoint x="723" y="879" as="sourcePoint" />
            <mxPoint x="724" y="807" as="targetPoint" />
          </mxGeometry>
        </mxCell>
        <mxCell id="GDYOSG9VOTngp5VWFNq1-52" value="总结&lt;br&gt;经验" style="text;html=1;align=center;verticalAlign=middle;resizable=0;points=[];autosize=1;strokeColor=none;fillColor=none;fontSize=8;" parent="1" vertex="1">
          <mxGeometry x="729" y="829" width="42" height="41" as="geometry" />
        </mxCell>
        <mxCell id="GDYOSG9VOTngp5VWFNq1-54" value="" style="shape=flexArrow;endArrow=classic;html=1;rounded=0;fontSize=8;" parent="1" edge="1">
          <mxGeometry width="50" height="50" relative="1" as="geometry">
            <mxPoint x="206.5" y="1008" as="sourcePoint" />
            <mxPoint x="207.5" y="809" as="targetPoint" />
          </mxGeometry>
        </mxCell>
        <mxCell id="GDYOSG9VOTngp5VWFNq1-55" value="复盘&lt;br&gt;反馈" style="text;html=1;align=center;verticalAlign=middle;resizable=0;points=[];autosize=1;strokeColor=none;fillColor=none;fontSize=8;" parent="1" vertex="1">
          <mxGeometry x="207.5" y="883" width="42" height="41" as="geometry" />
        </mxCell>
        <mxCell id="BfwxDj2PSmST9aKWuw-U-2" value="&lt;font style=&quot;font-size: 18px;&quot;&gt;活动管理&lt;/font&gt;" style="text;html=1;strokeColor=none;fillColor=none;align=center;verticalAlign=middle;whiteSpace=wrap;rounded=0;" parent="1" vertex="1">
          <mxGeometry x="993" y="27" width="100" height="30" as="geometry" />
        </mxCell>
        <mxCell id="BfwxDj2PSmST9aKWuw-U-3" style="edgeStyle=orthogonalEdgeStyle;rounded=0;orthogonalLoop=1;jettySize=auto;html=1;exitX=0.5;exitY=1;exitDx=0;exitDy=0;" parent="1" edge="1">
          <mxGeometry relative="1" as="geometry">
            <mxPoint x="1104" y="259" as="sourcePoint" />
            <mxPoint x="1104" y="259" as="targetPoint" />
          </mxGeometry>
        </mxCell>
        <mxCell id="BfwxDj2PSmST9aKWuw-U-4" value="招" style="whiteSpace=wrap;html=1;fillColor=#dae8fc;strokeColor=#6c8ebf;" parent="1" vertex="1">
          <mxGeometry x="797" y="285" width="50" height="110" as="geometry" />
        </mxCell>
        <mxCell id="BfwxDj2PSmST9aKWuw-U-5" value="选" style="whiteSpace=wrap;html=1;fillColor=#dae8fc;strokeColor=#6c8ebf;" parent="1" vertex="1">
          <mxGeometry x="908" y="285" width="50" height="110" as="geometry" />
        </mxCell>
        <mxCell id="BfwxDj2PSmST9aKWuw-U-6" value="搭" style="whiteSpace=wrap;html=1;fillColor=#dae8fc;strokeColor=#6c8ebf;" parent="1" vertex="1">
          <mxGeometry x="1018" y="285" width="50" height="110" as="geometry" />
        </mxCell>
        <mxCell id="BfwxDj2PSmST9aKWuw-U-7" value="投" style="whiteSpace=wrap;html=1;fillColor=#dae8fc;strokeColor=#6c8ebf;" parent="1" vertex="1">
          <mxGeometry x="1126" y="285" width="50" height="110" as="geometry" />
        </mxCell>
        <mxCell id="BfwxDj2PSmST9aKWuw-U-8" value="促" style="whiteSpace=wrap;html=1;fillColor=#dae8fc;strokeColor=#6c8ebf;" parent="1" vertex="1">
          <mxGeometry x="1233" y="285" width="50" height="110" as="geometry" />
        </mxCell>
        <mxCell id="BfwxDj2PSmST9aKWuw-U-15" value="Policy" style="rounded=0;whiteSpace=wrap;html=1;fillColor=#dae8fc;strokeColor=#6c8ebf;" parent="1" vertex="1">
          <mxGeometry x="873" y="104" width="120" height="36" as="geometry" />
        </mxCell>
        <mxCell id="BfwxDj2PSmST9aKWuw-U-17" value="Mega Campagin" style="rounded=0;whiteSpace=wrap;html=1;fillColor=#d5e8d4;strokeColor=#82b366;" parent="1" vertex="1">
          <mxGeometry x="873" y="138.25" width="120" height="36.5" as="geometry" />
        </mxCell>
        <mxCell id="BfwxDj2PSmST9aKWuw-U-18" value="Everyday Campagin" style="rounded=0;whiteSpace=wrap;html=1;fillColor=#d5e8d4;strokeColor=#82b366;" parent="1" vertex="1">
          <mxGeometry x="873" y="174.5" width="120" height="36" as="geometry" />
        </mxCell>
        <mxCell id="BfwxDj2PSmST9aKWuw-U-19" value="Other Campaign" style="rounded=0;whiteSpace=wrap;html=1;fillColor=#d5e8d4;strokeColor=#82b366;" parent="1" vertex="1">
          <mxGeometry x="873" y="210.5" width="120" height="36" as="geometry" />
        </mxCell>
        <mxCell id="BfwxDj2PSmST9aKWuw-U-21" value="" style="whiteSpace=wrap;html=1;" parent="1" vertex="1">
          <mxGeometry x="823" y="68" width="50" height="178" as="geometry" />
        </mxCell>
        <mxCell id="BfwxDj2PSmST9aKWuw-U-20" value="&lt;b&gt;项目管理&lt;/b&gt;" style="rounded=0;whiteSpace=wrap;html=1;" parent="1" vertex="1">
          <mxGeometry x="823" y="68" width="170" height="36" as="geometry" />
        </mxCell>
        <mxCell id="BfwxDj2PSmST9aKWuw-U-22" value="C端" style="rounded=0;whiteSpace=wrap;html=1;" parent="1" vertex="1">
          <mxGeometry x="823" y="138" width="50" height="108" as="geometry" />
        </mxCell>
        <mxCell id="BfwxDj2PSmST9aKWuw-U-23" value="B端" style="rounded=0;whiteSpace=wrap;html=1;" parent="1" vertex="1">
          <mxGeometry x="823" y="104" width="50" height="34" as="geometry" />
        </mxCell>
        <mxCell id="BfwxDj2PSmST9aKWuw-U-26" value="&lt;b&gt;资源管理&lt;/b&gt;" style="rounded=0;whiteSpace=wrap;html=1;" parent="1" vertex="1">
          <mxGeometry x="1088.5" y="68" width="170" height="36" as="geometry" />
        </mxCell>
        <mxCell id="BfwxDj2PSmST9aKWuw-U-27" value="预算&lt;br&gt;管理" style="rounded=0;whiteSpace=wrap;html=1;" parent="1" vertex="1">
          <mxGeometry x="1088.5" y="104" width="50" height="108" as="geometry" />
        </mxCell>
        <mxCell id="BfwxDj2PSmST9aKWuw-U-28" value="营销补贴" style="rounded=0;whiteSpace=wrap;html=1;fillColor=#dae8fc;strokeColor=#6c8ebf;" parent="1" vertex="1">
          <mxGeometry x="1138.5" y="104" width="120" height="36" as="geometry" />
        </mxCell>
        <mxCell id="BfwxDj2PSmST9aKWuw-U-29" value="现金打款" style="rounded=0;whiteSpace=wrap;html=1;fillColor=#dae8fc;strokeColor=#6c8ebf;" parent="1" vertex="1">
          <mxGeometry x="1138.5" y="140" width="120" height="36" as="geometry" />
        </mxCell>
        <mxCell id="BfwxDj2PSmST9aKWuw-U-30" value="流量激励" style="rounded=0;whiteSpace=wrap;html=1;fillColor=#dae8fc;strokeColor=#6c8ebf;" parent="1" vertex="1">
          <mxGeometry x="1138.5" y="176" width="120" height="36" as="geometry" />
        </mxCell>
        <mxCell id="BfwxDj2PSmST9aKWuw-U-31" value="运营资源" style="rounded=0;whiteSpace=wrap;html=1;fillColor=#d5e8d4;strokeColor=#82b366;" parent="1" vertex="1">
          <mxGeometry x="1138.5" y="212" width="120" height="36" as="geometry" />
        </mxCell>
        <mxCell id="BfwxDj2PSmST9aKWuw-U-32" value="其他" style="rounded=0;whiteSpace=wrap;html=1;" parent="1" vertex="1">
          <mxGeometry x="1088.5" y="212" width="50" height="36" as="geometry" />
        </mxCell>
      </root>
    </mxGraphModel>
  </diagram>
</mxfile>
